<?xml version="1.0" encoding="utf-8"?>
<!-- Generator: Adobe Illustrator 22.0.1, SVG Export Plug-In . SVG Version: 6.00 Build 0)  -->
<svg version="1.1" id="Слой_1" xmlns="http://www.w3.org/2000/svg" xmlns:xlink="http://www.w3.org/1999/xlink" x="0px" y="0px"
	 viewBox="0 0 16.4 16.4" style="enable-background:new 0 0 16.4 16.4;" xml:space="preserve">
<style type="text/css">
	.st0{fill:#CCD0D4;}
</style>
<g>
	<path class="st0" d="M11.3,1.2c0-0.6-0.4-1-1-1s-1,0.4-1,1v1h2V1.2z"/>
	<path class="st0" d="M6.3,1.2c0-0.6-0.4-1-1-1s-1,0.4-1,1v1h2V1.2z"/>
	<path class="st0" d="M13.3,2.2h-2v1c0,0.6-0.4,1-1,1s-1-0.4-1-1v-1h-3v1c0,0.6-0.4,1-1,1s-1-0.4-1-1v-1h-2c-1.1,0-2,0.9-2,2v9
		c0,1.1,0.9,2,2,2h11c1.1,0,2-0.9,2-2v-9C15.3,3.1,14.4,2.2,13.3,2.2z M13.3,12.2c0,0.6-0.4,1-1,1h-9c-0.6,0-1-0.4-1-1v-7h11V12.2z"
		/>
</g>
</svg>
