<?xml version="1.0" encoding="utf-8"?>
<!-- Generator: Adobe Illustrator 22.0.1, SVG Export Plug-In . SVG Version: 6.00 Build 0)  -->
<svg version="1.1" id="Capa_1" xmlns="http://www.w3.org/2000/svg" xmlns:xlink="http://www.w3.org/1999/xlink" x="0px" y="0px"
	 viewBox="0 0 95.9 95.9" style="enable-background:new 0 0 95.9 95.9;" xml:space="preserve">
<style type="text/css">
	.st0{fill:#FFFFFF;}
</style>
<g>
	<path class="st0" d="M62.8,48l32.5-32.5c0.8-0.8,0.8-2,0-2.8l-12-12C83,0.2,82.4,0,81.9,0c-0.5,0-1,0.2-1.4,0.6L48,33.1L15.4,0.6
		c-0.8-0.8-2.1-0.8-2.8,0l-12,12c-0.8,0.8-0.8,2,0,2.8L33.1,48L0.6,80.5c-0.8,0.8-0.8,2,0,2.8l12,12c0.4,0.4,0.9,0.6,1.4,0.6
		s1-0.2,1.4-0.6L48,62.8l32.5,32.5c0.4,0.4,0.9,0.6,1.4,0.6c0.5,0,1-0.2,1.4-0.6l12-12c0.8-0.8,0.8-2,0-2.8L62.8,48z"/>
</g>
</svg>
