<svg version="1.1" id="Layer_1" xmlns="http://www.w3.org/2000/svg" x="0" y="0" viewBox="0 0 512 512" class="location-icon" style="enable-background:new 0 0 512 512" xml:space="preserve"><style>.st0{fill:#fff}</style><path class="st0" d="M426.3 410.8H324.8v-24.6h93.4c-7.8-23.9-14.8-45-14.8-45h-70.5c-21.2 20.2-40.7 38.7-58.2 62.8L256 429.5l-18.7-25.6c-17.7-24.2-37.7-43.1-58.2-62.8h-70.5c-.1.4-7 21.3-14.8 45h93.4v24.6H85.7c-7.4 22.6-13.8 42-14 42.6h368.5c-.1-.5-6.5-20-13.9-42.5z"/><path class="st0" d="M256 390.3c55.7-76.4 135.1-105.9 135.1-196.5 0-77.4-57.7-135.1-135.1-135.1-77.4 0-135.1 57.7-135.1 135.1 0 90.6 79.4 120.1 135.1 196.5zm0-228.3c20.3 0 36.9 16.6 36.9 36.9 0 20.3-16.6 36.9-36.9 36.9-20.3 0-36.9-16.6-36.9-36.9 0-20.4 16.6-36.9 36.9-36.9z"/></svg>