<svg xmlns="http://www.w3.org/2000/svg" fill="#fff" class="location-icon" viewBox="0 0 24 24"><path d="M22.36 21.415h-6.173V19.92h5.681a666.79 666.79 0 0 0-.9-2.737H16.68c-1.29 1.229-2.475 2.354-3.54 3.82l-1.137 1.55-1.138-1.557c-1.076-1.471-2.292-2.621-3.54-3.82H3.039c-.006.025-.426 1.296-.9 2.738h5.68v1.496H1.645C1.195 22.784.805 23.964.793 24h22.413c-.006-.03-.395-1.216-.845-2.585z" class="st0"/><path d="M12.003 20.168c3.388-4.646 8.217-6.44 8.217-11.951C20.22 3.509 16.71 0 12.003 0 7.295 0 3.786 3.51 3.786 8.217c0 5.51 4.83 7.305 8.217 11.951zm0-13.885a2.25 2.25 0 0 1 2.244 2.244 2.25 2.25 0 0 1-2.244 2.244 2.25 2.25 0 0 1-2.244-2.244c0-1.24 1.01-2.244 2.244-2.244z" class="st0"/></svg>
