<svg xmlns="http://www.w3.org/2000/svg"><defs><symbol id="star" viewBox="0 0 24 24"><path fill="#fbb03b" d="M24 9.429c0-.354-.268-.576-.808-.662l-7.24-1.05-3.247-6.568c-.182-.394-.42-.591-.708-.591-.287 0-.525.197-.707.591L8.047 7.711.808 8.761C.268 8.849 0 9.07 0 9.425c0 .202.121.434.359.692l5.248 5.107-1.237 7.213a2.34 2.34 0 0 0-.03.288c0 .202.05.374.15.51.102.142.253.208.455.208.172 0 .364-.056.576-.172l6.476-3.405 6.477 3.405c.202.116.394.172.575.172a.515.515 0 0 0 .44-.208.848.848 0 0 0 .151-.51c0-.126-.005-.222-.015-.288l-1.237-7.213 5.233-5.107c.253-.248.379-.475.379-.687z"/></symbol><symbol id="location" fill="#fff" viewBox="0 0 24 24"><path d="M22.36 21.415h-6.173V19.92h5.681a666.79 666.79 0 0 0-.9-2.737H16.68c-1.29 1.229-2.475 2.354-3.54 3.82l-1.137 1.55-1.138-1.557c-1.076-1.471-2.292-2.621-3.54-3.82H3.039c-.006.025-.426 1.296-.9 2.738h5.68v1.496H1.645c-.45 1.374-.84 2.554-.852 2.59h22.413c-.006-.03-.395-1.216-.845-2.585z" class="st0"/><path d="M12.003 20.168c3.388-4.646 8.217-6.44 8.217-11.951C20.22 3.509 16.71 0 12.003 0 7.295 0 3.786 3.51 3.786 8.217c0 5.51 4.83 7.305 8.217 11.951zm0-13.885a2.25 2.25 0 0 1 2.244 2.244 2.25 2.25 0 0 1-2.244 2.244 2.25 2.25 0 0 1-2.244-2.244c0-1.24 1.01-2.244 2.244-2.244z" class="st0"/></symbol><symbol id="discount" viewBox="0 0 25 24"><g clip-path="url(#a)"><path fill="#fff" fill-opacity=".9" d="M22.382 2.118h-4.94c-1.166 0-2.792.673-3.616 1.497l-8.3 8.3a2.124 2.124 0 0 0 0 2.994l6.183 6.182a2.124 2.124 0 0 0 2.994 0l8.3-8.3c.823-.823 1.497-2.45 1.497-3.615v-4.94a2.124 2.124 0 0 0-2.118-2.118ZM19.56 9.176a2.118 2.118 0 1 1 0-4.235 2.118 2.118 0 0 1 0 4.235ZM2.41 13.911l7.552 7.552c-.8.423-1.819.299-2.49-.372L1.29 14.909a2.124 2.124 0 0 1 0-2.995l8.3-8.299c.823-.824 2.45-1.497 3.615-1.497L2.41 12.913a.708.708 0 0 0 0 .998Z"/></g><defs><clipPath id="a"><path fill="#fff" d="M0 0h24v22.588H0z" transform="translate(.5 .706)"/></clipPath></defs></symbol><symbol id="calendar" fill="#ccd0d4" viewBox="0 0 16.4 16.4"><path d="M11.3 1.2c0-.6-.4-1-1-1s-1 .4-1 1v1h2v-1zm-5 0c0-.6-.4-1-1-1s-1 .4-1 1v1h2v-1z" class="st0"/><path d="M13.3 2.2h-2v1c0 .6-.4 1-1 1s-1-.4-1-1v-1h-3v1c0 .6-.4 1-1 1s-1-.4-1-1v-1h-2c-1.1 0-2 .9-2 2v9c0 1.1.9 2 2 2h11c1.1 0 2-.9 2-2v-9c0-1.1-.9-2-2-2zm0 10c0 .6-.4 1-1 1h-9c-.6 0-1-.4-1-1v-7h11v7z" class="st0"/></symbol></defs></svg>