<svg xmlns="http://www.w3.org/2000/svg" class="star-icon" viewBox="0 0 475.1 475.1" style="enable-background:new 0 0 475.1 475.1" xml:space="preserve"><path style="fill:#fbb03b" d="M475.1 186.6c0-7-5.3-11.4-16-13.1l-143.3-20.8-64.3-130c-3.6-7.8-8.3-11.7-14-11.7-5.7 0-10.4 3.9-14 11.7l-64.2 129.9L16 173.4c-10.7 1.7-16 6.1-16 13.1 0 4 2.4 8.6 7.1 13.7L111 301.3 86.5 444.1c-.4 2.7-.6 4.6-.6 5.7 0 4 1 7.4 3 10.1 2 2.8 5 4.1 9 4.1 3.4 0 7.2-1.1 11.4-3.4l128.2-67.4 128.2 67.4c4 2.3 7.8 3.4 11.4 3.4 3.8 0 6.7-1.4 8.7-4.1 2-2.8 3-6.1 3-10.1 0-2.5-.1-4.4-.3-5.7L364 301.3l103.6-101.1c5-4.9 7.5-9.4 7.5-13.6z"/></svg>