<svg xmlns="http://www.w3.org/2000/svg" xml:space="preserve" class="star-icon" viewBox="0 0 24 24"><path fill="#fbb03b" d="M24 9.429c0-.354-.268-.576-.808-.662l-7.24-1.05-3.247-6.568c-.182-.394-.42-.591-.708-.591-.287 0-.525.197-.707.591L8.047 7.711.808 8.761C.268 8.849 0 9.07 0 9.425c0 .202.121.434.359.692l5.248 5.107-1.237 7.213c-.02.137-.03.233-.03.288 0 .202.05.374.15.51.102.142.253.208.455.208.172 0 .364-.056.576-.172l6.476-3.405 6.477 3.405c.202.116.394.172.575.172.192 0 .339-.071.44-.208a.848.848 0 0 0 .151-.51c0-.126-.005-.222-.015-.288l-1.237-7.213 5.233-5.107c.253-.248.379-.475.379-.687z"/></svg>