<svg width="12" height="13" viewBox="0 0 12 13" fill="none" xmlns="http://www.w3.org/2000/svg">
<g id="Arrow Down">
<path id="Vector" d="M0.0506248 10.0893C0.0662222 10.0966 0.0835056 10.0996 0.10066 10.0979C0.117816 10.0963 0.134212 10.0901 0.148125 10.0799L6.0375 5.66239L11.8519 10.0799C11.8658 10.0901 11.8822 10.0963 11.8993 10.0979C11.9165 10.0996 11.9338 10.0966 11.9494 10.0893C11.9794 10.0724 12 10.0405 12 10.0068V7.67614C12 7.64801 11.9869 7.61989 11.9644 7.60301L6.05625 3.09364C6.03937 3.08051 6.01875 3.07489 6 3.07489C5.97937 3.07489 5.96063 3.08051 5.94375 3.09364L0.0356245 7.65364C0.0131245 7.67052 0 7.69864 0 7.72676V10.0068C0 10.0405 0.0187502 10.0724 0.0506248 10.0893Z" fill="#B3B5BB"/>
</g>
</svg>
